<?xml version="1.0" standalone="no"?>
<!DOCTYPE svg PUBLIC "-//W3C//DTD SVG 20010904//EN"
 "http://www.w3.org/TR/2001/REC-SVG-20010904/DTD/svg10.dtd">
<svg version="1.0" xmlns="http://www.w3.org/2000/svg"
 width="512.000000pt" height="512.000000pt" viewBox="0 0 512.000000 512.000000"
 preserveAspectRatio="xMidYMid meet">
<metadata>
Created by potrace 1.11, written by Peter Selinger 2001-2013
</metadata>
<g transform="translate(0.000000,512.000000) scale(0.100000,-0.100000)"
fill="#000000" stroke="none">
<path d="M2454 5105 c-189 -57 -310 -244 -281 -435 32 -216 228 -361 446 -330
275 39 422 358 273 594 -49 78 -143 149 -227 171 -50 13 -167 13 -211 0z"/>
<path d="M3503 4855 c-84 -38 -144 -146 -138 -246 6 -107 59 -167 248 -285
568 -351 924 -903 995 -1544 14 -125 5 -521 -13 -550 -2 -3 -6 -21 -9 -40 -27
-176 -119 -433 -219 -615 -242 -439 -627 -772 -1097 -947 -248 -92 -468 -128
-750 -123 -262 4 -442 38 -673 125 -567 213 -1009 654 -1218 1218 -40 108 -94
310 -104 390 -4 26 -9 58 -12 72 -9 41 -11 432 -2 465 4 17 10 55 14 85 3 30
17 102 30 160 32 132 26 113 78 262 63 181 56 250 -36 340 -51 49 -120 78
-188 78 -57 0 -141 -41 -173 -84 -32 -42 -117 -271 -152 -406 -56 -219 -78
-398 -79 -630 0 -310 25 -493 107 -765 50 -167 149 -397 224 -522 10 -17 36
-60 57 -95 178 -297 499 -616 820 -814 296 -183 692 -326 997 -359 36 -4 86
-10 112 -15 49 -7 472 -5 518 4 14 2 45 7 70 10 25 4 92 16 150 27 58 12 116
23 130 26 39 7 316 101 369 124 481 216 858 530 1133 945 209 314 369 736 404
1069 3 28 8 61 10 75 10 44 12 423 3 505 -21 200 -63 397 -120 568 -206 620
-648 1143 -1224 1452 -79 42 -99 48 -160 51 -47 2 -81 -1 -102 -11z"/>
<path d="M665 4447 c10 -31 36 -73 133 -217 103 -153 498 -689 640 -869 15
-19 62 -80 105 -135 43 -56 88 -114 101 -131 13 -16 76 -97 140 -180 64 -82
185 -238 268 -345 84 -107 156 -199 160 -205 61 -87 151 -156 235 -180 249
-73 503 115 503 372 0 168 -53 243 -310 443 -74 58 -279 217 -455 355 -527
411 -708 550 -970 743 -295 219 -478 343 -538 365 -15 6 -17 3 -12 -16z"/>
</g>
</svg>
